# xmcd
#
# Track frame offsets: 
#        150
#        11062
#        21637
#        31644
#        46322
#        60197
#        74220
#        85667
#        96772
#        108220
#
# Disc length: 1581 seconds
#
# Revision: 1
# Processed by: cddbd v1.4PL0 Copyright (c) Steve Scherf et al.
# Submitted via: ExactAudioCopy v0.90b4
#
DISCID=78062b0a
DTITLE=Mickey Gilley - I'm To Blame
DYEAR=1995
DGENRE=Country
TTITLE0=I'm To Blame
TTITLE1=Night After Night
TTITLE2=Susie Q
TTITLE3=I'll Make It All Up To You
TTITLE4=She's Still Got A Hold On You
TTITLE5=That Heart Belongs To Me
TTITLE6=Its Just A Matter Of Making Up My Mind
TTITLE7=A New Way To Live
TTITLE8=There's No One Like You
TTITLE9=That's How It's Got To Be
EXTD=
EXTT0=
EXTT1=
EXTT2=
EXTT3=
EXTT4=
EXTT5=
EXTT6=
EXTT7=
EXTT8=
EXTT9=
PLAYORDER=
